<?xml version="1.0" encoding="UTF-8" standalone="no"?>
<!DOCTYPE svg PUBLIC "-//W3C//DTD SVG 1.1//EN"
 "http://www.w3.org/Graphics/SVG/1.1/DTD/svg11.dtd">
<!-- Generated by graphviz version 2.48.0 (0)
 -->
<!-- Title: snakemake_dag Pages: 1 -->
<svg width="2355pt" height="409pt"
 viewBox="0.00 0.00 2355.00 409.00" xmlns="http://www.w3.org/2000/svg" xmlns:xlink="http://www.w3.org/1999/xlink">
<g id="graph0" class="graph" transform="scale(1 1) rotate(0) translate(4 405)">
<title>snakemake_dag</title>
<polygon fill="white" stroke="transparent" points="-4,4 -4,-405 2351,-405 2351,4 -4,4"/>
<!-- 0 -->
<g id="node1" class="node">
<title>0</title>
<path fill="none" stroke="#59d856" stroke-width="2" stroke-dasharray="5,2" d="M892.5,-36C892.5,-36 862.5,-36 862.5,-36 856.5,-36 850.5,-30 850.5,-24 850.5,-24 850.5,-12 850.5,-12 850.5,-6 856.5,0 862.5,0 862.5,0 892.5,0 892.5,0 898.5,0 904.5,-6 904.5,-12 904.5,-12 904.5,-24 904.5,-24 904.5,-30 898.5,-36 892.5,-36"/>
<text text-anchor="middle" x="877.5" y="-15.5" font-family="sans" font-size="10.00">all</text>
</g>
<!-- 1 -->
<g id="node2" class="node">
<title>1</title>
<path fill="none" stroke="#56d89a" stroke-width="2" stroke-dasharray="5,2" d="M522.5,-108C522.5,-108 440.5,-108 440.5,-108 434.5,-108 428.5,-102 428.5,-96 428.5,-96 428.5,-84 428.5,-84 428.5,-78 434.5,-72 440.5,-72 440.5,-72 522.5,-72 522.5,-72 528.5,-72 534.5,-78 534.5,-84 534.5,-84 534.5,-96 534.5,-96 534.5,-102 528.5,-108 522.5,-108"/>
<text text-anchor="middle" x="481.5" y="-87.5" font-family="sans" font-size="10.00">haplotype_caller_vcf</text>
</g>
<!-- 1&#45;&gt;0 -->
<g id="edge1" class="edge">
<title>1&#45;&gt;0</title>
<path fill="none" stroke="grey" stroke-width="2" d="M534.91,-79.56C616.23,-65.18 769.12,-38.16 839.85,-25.66"/>
<polygon fill="grey" stroke="grey" stroke-width="2" points="840.83,-29.04 850.07,-23.85 839.61,-22.14 840.83,-29.04"/>
</g>
<!-- 2 -->
<g id="node3" class="node">
<title>2</title>
<path fill="none" stroke="#d6d856" stroke-width="2" stroke-dasharray="5,2" d="M317.5,-182.5C317.5,-182.5 237.5,-182.5 237.5,-182.5 231.5,-182.5 225.5,-176.5 225.5,-170.5 225.5,-170.5 225.5,-158.5 225.5,-158.5 225.5,-152.5 231.5,-146.5 237.5,-146.5 237.5,-146.5 317.5,-146.5 317.5,-146.5 323.5,-146.5 329.5,-152.5 329.5,-158.5 329.5,-158.5 329.5,-170.5 329.5,-170.5 329.5,-176.5 323.5,-182.5 317.5,-182.5"/>
<text text-anchor="middle" x="277.5" y="-162" font-family="sans" font-size="10.00">modify_read_groups</text>
</g>
<!-- 2&#45;&gt;1 -->
<g id="edge3" class="edge">
<title>2&#45;&gt;1</title>
<path fill="none" stroke="grey" stroke-width="2" d="M325.59,-146.41C354.92,-135.98 392.61,-122.59 423.58,-111.58"/>
<polygon fill="grey" stroke="grey" stroke-width="2" points="425.13,-114.75 433.38,-108.1 422.79,-108.15 425.13,-114.75"/>
</g>
<!-- 3 -->
<g id="node4" class="node">
<title>3</title>
<path fill="none" stroke="#d89556" stroke-width="2" stroke-dasharray="5,2" d="M283.5,-257C283.5,-257 229.5,-257 229.5,-257 223.5,-257 217.5,-251 217.5,-245 217.5,-245 217.5,-233 217.5,-233 217.5,-227 223.5,-221 229.5,-221 229.5,-221 283.5,-221 283.5,-221 289.5,-221 295.5,-227 295.5,-233 295.5,-233 295.5,-245 295.5,-245 295.5,-251 289.5,-257 283.5,-257"/>
<text text-anchor="middle" x="256.5" y="-236.5" font-family="sans" font-size="10.00">samtools_sort</text>
</g>
<!-- 3&#45;&gt;2 -->
<g id="edge6" class="edge">
<title>3&#45;&gt;2</title>
<path fill="none" stroke="grey" stroke-width="2" d="M261.48,-220.82C263.94,-212.33 266.96,-201.89 269.71,-192.38"/>
<polygon fill="grey" stroke="grey" stroke-width="2" points="273.14,-193.14 272.56,-182.56 266.41,-191.19 273.14,-193.14"/>
</g>
<!-- 4 -->
<g id="node5" class="node">
<title>4</title>
<path fill="none" stroke="#97d856" stroke-width="2" stroke-dasharray="5,2" d="M191,-329C191,-329 156,-329 156,-329 150,-329 144,-323 144,-317 144,-317 144,-305 144,-305 144,-299 150,-293 156,-293 156,-293 191,-293 191,-293 197,-293 203,-299 203,-305 203,-305 203,-317 203,-317 203,-323 197,-329 191,-329"/>
<text text-anchor="middle" x="173.5" y="-308.5" font-family="sans" font-size="10.00">bwa_map</text>
</g>
<!-- 4&#45;&gt;3 -->
<g id="edge7" class="edge">
<title>4&#45;&gt;3</title>
<path fill="none" stroke="grey" stroke-width="2" d="M194.02,-292.7C204.37,-283.97 217.09,-273.24 228.34,-263.75"/>
<polygon fill="grey" stroke="grey" stroke-width="2" points="230.83,-266.23 236.22,-257.1 226.32,-260.88 230.83,-266.23"/>
</g>
<!-- 5 -->
<g id="node6" class="node">
<title>5</title>
<path fill="none" stroke="#56d8d8" stroke-width="2" stroke-dasharray="5,2" d="M253,-401C253,-401 12,-401 12,-401 6,-401 0,-395 0,-389 0,-389 0,-377 0,-377 0,-371 6,-365 12,-365 12,-365 253,-365 253,-365 259,-365 265,-371 265,-377 265,-377 265,-389 265,-389 265,-395 259,-401 253,-401"/>
<text text-anchor="middle" x="132.5" y="-386" font-family="sans" font-size="10.00">trimmomatic_pe</text>
<text text-anchor="middle" x="132.5" y="-375" font-family="sans" font-size="10.00">sample: NS.2209.003.UDP0161_i7&#45;&#45;&#45;UDP0161_i5.fRS1_</text>
</g>
<!-- 5&#45;&gt;4 -->
<g id="edge8" class="edge">
<title>5&#45;&gt;4</title>
<path fill="none" stroke="grey" stroke-width="2" d="M142.63,-364.7C147.35,-356.64 153.06,-346.89 158.28,-337.98"/>
<polygon fill="grey" stroke="grey" stroke-width="2" points="161.45,-339.5 163.48,-329.1 155.41,-335.96 161.45,-339.5"/>
</g>
<!-- 6 -->
<g id="node7" class="node">
<title>6</title>
<path fill="none" stroke="#d6d856" stroke-width="2" stroke-dasharray="5,2" d="M460.5,-182.5C460.5,-182.5 380.5,-182.5 380.5,-182.5 374.5,-182.5 368.5,-176.5 368.5,-170.5 368.5,-170.5 368.5,-158.5 368.5,-158.5 368.5,-152.5 374.5,-146.5 380.5,-146.5 380.5,-146.5 460.5,-146.5 460.5,-146.5 466.5,-146.5 472.5,-152.5 472.5,-158.5 472.5,-158.5 472.5,-170.5 472.5,-170.5 472.5,-176.5 466.5,-182.5 460.5,-182.5"/>
<text text-anchor="middle" x="420.5" y="-162" font-family="sans" font-size="10.00">modify_read_groups</text>
</g>
<!-- 6&#45;&gt;1 -->
<g id="edge4" class="edge">
<title>6&#45;&gt;1</title>
<path fill="none" stroke="grey" stroke-width="2" d="M434.96,-146.32C442.63,-137.2 452.2,-125.83 460.66,-115.77"/>
<polygon fill="grey" stroke="grey" stroke-width="2" points="463.39,-117.96 467.15,-108.06 458.03,-113.46 463.39,-117.96"/>
</g>
<!-- 7 -->
<g id="node8" class="node">
<title>7</title>
<path fill="none" stroke="#d89556" stroke-width="2" stroke-dasharray="5,2" d="M447.5,-257C447.5,-257 393.5,-257 393.5,-257 387.5,-257 381.5,-251 381.5,-245 381.5,-245 381.5,-233 381.5,-233 381.5,-227 387.5,-221 393.5,-221 393.5,-221 447.5,-221 447.5,-221 453.5,-221 459.5,-227 459.5,-233 459.5,-233 459.5,-245 459.5,-245 459.5,-251 453.5,-257 447.5,-257"/>
<text text-anchor="middle" x="420.5" y="-236.5" font-family="sans" font-size="10.00">samtools_sort</text>
</g>
<!-- 7&#45;&gt;6 -->
<g id="edge9" class="edge">
<title>7&#45;&gt;6</title>
<path fill="none" stroke="grey" stroke-width="2" d="M420.5,-220.82C420.5,-212.42 420.5,-202.12 420.5,-192.69"/>
<polygon fill="grey" stroke="grey" stroke-width="2" points="424,-192.56 420.5,-182.56 417,-192.56 424,-192.56"/>
</g>
<!-- 8 -->
<g id="node9" class="node">
<title>8</title>
<path fill="none" stroke="#97d856" stroke-width="2" stroke-dasharray="5,2" d="M438,-329C438,-329 403,-329 403,-329 397,-329 391,-323 391,-317 391,-317 391,-305 391,-305 391,-299 397,-293 403,-293 403,-293 438,-293 438,-293 444,-293 450,-299 450,-305 450,-305 450,-317 450,-317 450,-323 444,-329 438,-329"/>
<text text-anchor="middle" x="420.5" y="-308.5" font-family="sans" font-size="10.00">bwa_map</text>
</g>
<!-- 8&#45;&gt;7 -->
<g id="edge10" class="edge">
<title>8&#45;&gt;7</title>
<path fill="none" stroke="grey" stroke-width="2" d="M420.5,-292.7C420.5,-284.98 420.5,-275.71 420.5,-267.11"/>
<polygon fill="grey" stroke="grey" stroke-width="2" points="424,-267.1 420.5,-257.1 417,-267.1 424,-267.1"/>
</g>
<!-- 9 -->
<g id="node10" class="node">
<title>9</title>
<path fill="none" stroke="#56d8d8" stroke-width="2" stroke-dasharray="5,2" d="M546,-401C546,-401 295,-401 295,-401 289,-401 283,-395 283,-389 283,-389 283,-377 283,-377 283,-371 289,-365 295,-365 295,-365 546,-365 546,-365 552,-365 558,-371 558,-377 558,-377 558,-389 558,-389 558,-395 552,-401 546,-401"/>
<text text-anchor="middle" x="420.5" y="-386" font-family="sans" font-size="10.00">trimmomatic_pe</text>
<text text-anchor="middle" x="420.5" y="-375" font-family="sans" font-size="10.00">sample: NS.2209.003.UDP0163_i7&#45;&#45;&#45;UDP0163_i5.fRS757_</text>
</g>
<!-- 9&#45;&gt;8 -->
<g id="edge11" class="edge">
<title>9&#45;&gt;8</title>
<path fill="none" stroke="grey" stroke-width="2" d="M420.5,-364.7C420.5,-356.98 420.5,-347.71 420.5,-339.11"/>
<polygon fill="grey" stroke="grey" stroke-width="2" points="424,-339.1 420.5,-329.1 417,-339.1 424,-339.1"/>
</g>
<!-- 10 -->
<g id="node11" class="node">
<title>10</title>
<path fill="none" stroke="#d6d856" stroke-width="2" stroke-dasharray="5,2" d="M582.5,-182.5C582.5,-182.5 502.5,-182.5 502.5,-182.5 496.5,-182.5 490.5,-176.5 490.5,-170.5 490.5,-170.5 490.5,-158.5 490.5,-158.5 490.5,-152.5 496.5,-146.5 502.5,-146.5 502.5,-146.5 582.5,-146.5 582.5,-146.5 588.5,-146.5 594.5,-152.5 594.5,-158.5 594.5,-158.5 594.5,-170.5 594.5,-170.5 594.5,-176.5 588.5,-182.5 582.5,-182.5"/>
<text text-anchor="middle" x="542.5" y="-162" font-family="sans" font-size="10.00">modify_read_groups</text>
</g>
<!-- 10&#45;&gt;1 -->
<g id="edge5" class="edge">
<title>10&#45;&gt;1</title>
<path fill="none" stroke="grey" stroke-width="2" d="M528.04,-146.32C520.37,-137.2 510.8,-125.83 502.34,-115.77"/>
<polygon fill="grey" stroke="grey" stroke-width="2" points="504.97,-113.46 495.85,-108.06 499.61,-117.96 504.97,-113.46"/>
</g>
<!-- 11 -->
<g id="node12" class="node">
<title>11</title>
<path fill="none" stroke="#d89556" stroke-width="2" stroke-dasharray="5,2" d="M651.5,-257C651.5,-257 597.5,-257 597.5,-257 591.5,-257 585.5,-251 585.5,-245 585.5,-245 585.5,-233 585.5,-233 585.5,-227 591.5,-221 597.5,-221 597.5,-221 651.5,-221 651.5,-221 657.5,-221 663.5,-227 663.5,-233 663.5,-233 663.5,-245 663.5,-245 663.5,-251 657.5,-257 651.5,-257"/>
<text text-anchor="middle" x="624.5" y="-236.5" font-family="sans" font-size="10.00">samtools_sort</text>
</g>
<!-- 11&#45;&gt;10 -->
<g id="edge12" class="edge">
<title>11&#45;&gt;10</title>
<path fill="none" stroke="grey" stroke-width="2" d="M605.07,-220.82C594.45,-211.43 581.13,-199.65 569.51,-189.38"/>
<polygon fill="grey" stroke="grey" stroke-width="2" points="571.6,-186.56 561.79,-182.56 566.97,-191.8 571.6,-186.56"/>
</g>
<!-- 12 -->
<g id="node13" class="node">
<title>12</title>
<path fill="none" stroke="#97d856" stroke-width="2" stroke-dasharray="5,2" d="M683,-329C683,-329 648,-329 648,-329 642,-329 636,-323 636,-317 636,-317 636,-305 636,-305 636,-299 642,-293 648,-293 648,-293 683,-293 683,-293 689,-293 695,-299 695,-305 695,-305 695,-317 695,-317 695,-323 689,-329 683,-329"/>
<text text-anchor="middle" x="665.5" y="-308.5" font-family="sans" font-size="10.00">bwa_map</text>
</g>
<!-- 12&#45;&gt;11 -->
<g id="edge13" class="edge">
<title>12&#45;&gt;11</title>
<path fill="none" stroke="grey" stroke-width="2" d="M655.37,-292.7C650.65,-284.64 644.94,-274.89 639.72,-265.98"/>
<polygon fill="grey" stroke="grey" stroke-width="2" points="642.59,-263.96 634.52,-257.1 636.55,-267.5 642.59,-263.96"/>
</g>
<!-- 13 -->
<g id="node14" class="node">
<title>13</title>
<path fill="none" stroke="#56d8d8" stroke-width="2" stroke-dasharray="5,2" d="M824.5,-401C824.5,-401 588.5,-401 588.5,-401 582.5,-401 576.5,-395 576.5,-389 576.5,-389 576.5,-377 576.5,-377 576.5,-371 582.5,-365 588.5,-365 588.5,-365 824.5,-365 824.5,-365 830.5,-365 836.5,-371 836.5,-377 836.5,-377 836.5,-389 836.5,-389 836.5,-395 830.5,-401 824.5,-401"/>
<text text-anchor="middle" x="706.5" y="-386" font-family="sans" font-size="10.00">trimmomatic_pe</text>
<text text-anchor="middle" x="706.5" y="-375" font-family="sans" font-size="10.00">sample: NS.2209.003.UDP0167_i7&#45;&#45;&#45;UDP0167_i5.A12_</text>
</g>
<!-- 13&#45;&gt;12 -->
<g id="edge14" class="edge">
<title>13&#45;&gt;12</title>
<path fill="none" stroke="grey" stroke-width="2" d="M696.37,-364.7C691.65,-356.64 685.94,-346.89 680.72,-337.98"/>
<polygon fill="grey" stroke="grey" stroke-width="2" points="683.59,-335.96 675.52,-329.1 677.55,-339.5 683.59,-335.96"/>
</g>
<!-- 14 -->
<g id="node15" class="node">
<title>14</title>
<path fill="none" stroke="#d85656" stroke-width="2" stroke-dasharray="5,2" d="M1349.5,-108C1349.5,-108 1319.5,-108 1319.5,-108 1313.5,-108 1307.5,-102 1307.5,-96 1307.5,-96 1307.5,-84 1307.5,-84 1307.5,-78 1313.5,-72 1319.5,-72 1319.5,-72 1349.5,-72 1349.5,-72 1355.5,-72 1361.5,-78 1361.5,-84 1361.5,-84 1361.5,-96 1361.5,-96 1361.5,-102 1355.5,-108 1349.5,-108"/>
<text text-anchor="middle" x="1334.5" y="-87.5" font-family="sans" font-size="10.00">multiqc</text>
</g>
<!-- 14&#45;&gt;0 -->
<g id="edge2" class="edge">
<title>14&#45;&gt;0</title>
<path fill="none" stroke="grey" stroke-width="2" d="M1307.28,-84.83C1229.1,-72.85 1003.75,-38.34 914.52,-24.67"/>
<polygon fill="grey" stroke="grey" stroke-width="2" points="914.99,-21.2 904.58,-23.15 913.93,-28.12 914.99,-21.2"/>
</g>
<!-- 15 -->
<g id="node16" class="node">
<title>15</title>
<path fill="none" stroke="#569ad8" stroke-width="2" stroke-dasharray="5,2" d="M872.5,-185C872.5,-185 624.5,-185 624.5,-185 618.5,-185 612.5,-179 612.5,-173 612.5,-173 612.5,-156 612.5,-156 612.5,-150 618.5,-144 624.5,-144 624.5,-144 872.5,-144 872.5,-144 878.5,-144 884.5,-150 884.5,-156 884.5,-156 884.5,-173 884.5,-173 884.5,-179 878.5,-185 872.5,-185"/>
<text text-anchor="middle" x="748.5" y="-173" font-family="sans" font-size="10.00">fastqc</text>
<text text-anchor="middle" x="748.5" y="-162" font-family="sans" font-size="10.00">read: 1</text>
<text text-anchor="middle" x="748.5" y="-151" font-family="sans" font-size="10.00">sample: NS.2209.003.UDP0161_i7&#45;&#45;&#45;UDP0161_i5.fRS1_R</text>
</g>
<!-- 15&#45;&gt;14 -->
<g id="edge15" class="edge">
<title>15&#45;&gt;14</title>
<path fill="none" stroke="grey" stroke-width="2" d="M884.72,-145.12C887.67,-144.74 890.6,-144.37 893.5,-144 1043.09,-124.95 1221.47,-104.08 1297.37,-95.28"/>
<polygon fill="grey" stroke="grey" stroke-width="2" points="1297.85,-98.75 1307.39,-94.12 1297.05,-91.8 1297.85,-98.75"/>
</g>
<!-- 16 -->
<g id="node17" class="node">
<title>16</title>
<path fill="none" stroke="#569ad8" stroke-width="2" stroke-dasharray="5,2" d="M1162.5,-185C1162.5,-185 914.5,-185 914.5,-185 908.5,-185 902.5,-179 902.5,-173 902.5,-173 902.5,-156 902.5,-156 902.5,-150 908.5,-144 914.5,-144 914.5,-144 1162.5,-144 1162.5,-144 1168.5,-144 1174.5,-150 1174.5,-156 1174.5,-156 1174.5,-173 1174.5,-173 1174.5,-179 1168.5,-185 1162.5,-185"/>
<text text-anchor="middle" x="1038.5" y="-173" font-family="sans" font-size="10.00">fastqc</text>
<text text-anchor="middle" x="1038.5" y="-162" font-family="sans" font-size="10.00">read: 2</text>
<text text-anchor="middle" x="1038.5" y="-151" font-family="sans" font-size="10.00">sample: NS.2209.003.UDP0161_i7&#45;&#45;&#45;UDP0161_i5.fRS1_R</text>
</g>
<!-- 16&#45;&gt;14 -->
<g id="edge16" class="edge">
<title>16&#45;&gt;14</title>
<path fill="none" stroke="grey" stroke-width="2" d="M1118.21,-143.98C1176.51,-129.7 1252.92,-110.98 1297.57,-100.04"/>
<polygon fill="grey" stroke="grey" stroke-width="2" points="1298.52,-103.42 1307.4,-97.64 1296.86,-96.62 1298.52,-103.42"/>
</g>
<!-- 17 -->
<g id="node18" class="node">
<title>17</title>
<path fill="none" stroke="#569ad8" stroke-width="2" stroke-dasharray="5,2" d="M1464,-185C1464,-185 1205,-185 1205,-185 1199,-185 1193,-179 1193,-173 1193,-173 1193,-156 1193,-156 1193,-150 1199,-144 1205,-144 1205,-144 1464,-144 1464,-144 1470,-144 1476,-150 1476,-156 1476,-156 1476,-173 1476,-173 1476,-179 1470,-185 1464,-185"/>
<text text-anchor="middle" x="1334.5" y="-173" font-family="sans" font-size="10.00">fastqc</text>
<text text-anchor="middle" x="1334.5" y="-162" font-family="sans" font-size="10.00">read: 1</text>
<text text-anchor="middle" x="1334.5" y="-151" font-family="sans" font-size="10.00">sample: NS.2209.003.UDP0163_i7&#45;&#45;&#45;UDP0163_i5.fRS757_R</text>
</g>
<!-- 17&#45;&gt;14 -->
<g id="edge17" class="edge">
<title>17&#45;&gt;14</title>
<path fill="none" stroke="grey" stroke-width="2" d="M1334.5,-143.69C1334.5,-135.91 1334.5,-126.84 1334.5,-118.45"/>
<polygon fill="grey" stroke="grey" stroke-width="2" points="1338,-118.32 1334.5,-108.32 1331,-118.32 1338,-118.32"/>
</g>
<!-- 18 -->
<g id="node19" class="node">
<title>18</title>
<path fill="none" stroke="#569ad8" stroke-width="2" stroke-dasharray="5,2" d="M1765,-185C1765,-185 1506,-185 1506,-185 1500,-185 1494,-179 1494,-173 1494,-173 1494,-156 1494,-156 1494,-150 1500,-144 1506,-144 1506,-144 1765,-144 1765,-144 1771,-144 1777,-150 1777,-156 1777,-156 1777,-173 1777,-173 1777,-179 1771,-185 1765,-185"/>
<text text-anchor="middle" x="1635.5" y="-173" font-family="sans" font-size="10.00">fastqc</text>
<text text-anchor="middle" x="1635.5" y="-162" font-family="sans" font-size="10.00">read: 2</text>
<text text-anchor="middle" x="1635.5" y="-151" font-family="sans" font-size="10.00">sample: NS.2209.003.UDP0163_i7&#45;&#45;&#45;UDP0163_i5.fRS757_R</text>
</g>
<!-- 18&#45;&gt;14 -->
<g id="edge18" class="edge">
<title>18&#45;&gt;14</title>
<path fill="none" stroke="grey" stroke-width="2" d="M1554.44,-143.98C1494.99,-129.66 1417.03,-110.88 1371.68,-99.96"/>
<polygon fill="grey" stroke="grey" stroke-width="2" points="1372.24,-96.49 1361.7,-97.55 1370.6,-103.3 1372.24,-96.49"/>
</g>
<!-- 19 -->
<g id="node20" class="node">
<title>19</title>
<path fill="none" stroke="#569ad8" stroke-width="2" stroke-dasharray="5,2" d="M2050,-185C2050,-185 1807,-185 1807,-185 1801,-185 1795,-179 1795,-173 1795,-173 1795,-156 1795,-156 1795,-150 1801,-144 1807,-144 1807,-144 2050,-144 2050,-144 2056,-144 2062,-150 2062,-156 2062,-156 2062,-173 2062,-173 2062,-179 2056,-185 2050,-185"/>
<text text-anchor="middle" x="1928.5" y="-173" font-family="sans" font-size="10.00">fastqc</text>
<text text-anchor="middle" x="1928.5" y="-162" font-family="sans" font-size="10.00">read: 1</text>
<text text-anchor="middle" x="1928.5" y="-151" font-family="sans" font-size="10.00">sample: NS.2209.003.UDP0167_i7&#45;&#45;&#45;UDP0167_i5.A12_R</text>
</g>
<!-- 19&#45;&gt;14 -->
<g id="edge19" class="edge">
<title>19&#45;&gt;14</title>
<path fill="none" stroke="grey" stroke-width="2" d="M1794.73,-145.05C1791.96,-144.7 1789.22,-144.35 1786.5,-144 1632.67,-124.42 1449.03,-103.71 1371.71,-95.11"/>
<polygon fill="grey" stroke="grey" stroke-width="2" points="1371.85,-91.61 1361.52,-93.98 1371.08,-98.56 1371.85,-91.61"/>
</g>
<!-- 20 -->
<g id="node21" class="node">
<title>20</title>
<path fill="none" stroke="#569ad8" stroke-width="2" stroke-dasharray="5,2" d="M2335,-185C2335,-185 2092,-185 2092,-185 2086,-185 2080,-179 2080,-173 2080,-173 2080,-156 2080,-156 2080,-150 2086,-144 2092,-144 2092,-144 2335,-144 2335,-144 2341,-144 2347,-150 2347,-156 2347,-156 2347,-173 2347,-173 2347,-179 2341,-185 2335,-185"/>
<text text-anchor="middle" x="2213.5" y="-173" font-family="sans" font-size="10.00">fastqc</text>
<text text-anchor="middle" x="2213.5" y="-162" font-family="sans" font-size="10.00">read: 2</text>
<text text-anchor="middle" x="2213.5" y="-151" font-family="sans" font-size="10.00">sample: NS.2209.003.UDP0167_i7&#45;&#45;&#45;UDP0167_i5.A12_R</text>
</g>
<!-- 20&#45;&gt;14 -->
<g id="edge20" class="edge">
<title>20&#45;&gt;14</title>
<path fill="none" stroke="grey" stroke-width="2" d="M2079.74,-144.89C2076.97,-144.58 2074.22,-144.28 2071.5,-144 1803.87,-116.03 1480,-98.31 1371.75,-92.82"/>
<polygon fill="grey" stroke="grey" stroke-width="2" points="1371.82,-89.32 1361.66,-92.32 1371.47,-96.32 1371.82,-89.32"/>
</g>
</g>
</svg>
